v -1.000000 1.000000 -1.000000
v 1.000000 1.000000 -1.000000
v 1.000000 1.000000 1.000000
v 1.000000 -1.000000 1.000000
v -1.000000 -1.000000 1.000000
v -1.000000 1.000000 1.000000
v -1.000000 -1.000000 -1.000000
v 1.000000 -1.000000 -1.000000

vt 0.875000 0.500000
vt 0.625000 0.500000
vt 0.625000 0.750000
vt 0.625000 0.000000
vt 0.375000 0.000000
vt 0.375000 0.250000
vt 0.375000 0.500000
vt 0.125000 0.500000
vt 0.125000 0.750000
vt 0.375000 0.750000
vt 0.625000 0.250000
vt 0.875000 0.750000

vn 0.0000 -1.0000 -0.0000
vn 1.0000 0.0000 0.0000
vn 0.0000 1.0000 0.0000
vn -1.0000 0.0000 0.0000
vn 0.0000 -0.0000 1.0000

f 1/1/1 2/2/1 3/3/1
f 6/4/2 5/5/2 7/6/2
f 8/7/3 7/8/3 5/9/3
f 2/2/4 8/7/4 4/10/4
f 1/11/5 7/6/5 8/7/5
f 1/1/1 3/3/1 6/12/1
f 6/4/2 7/6/2 1/11/2
f 8/7/3 5/9/3 4/10/3
f 2/2/4 4/10/4 3/3/4
f 1/11/5 8/7/5 2/2/5
